<svg width="127" height="24" viewBox="0 0 127 24" fill="none" xmlns="http://www.w3.org/2000/svg">
<path fill-rule="evenodd" clip-rule="evenodd" d="M4 0C1.79086 0 0 1.79086 0 4V20C0 22.2091 1.79086 24 4 24H20C22.2091 24 24 22.2091 24 20V4C24 1.79086 22.2091 0 20 0H4ZM5.80769 20H6.88462C7.09883 20 7.30427 19.9157 7.45574 19.7657C7.60721 19.6157 7.69231 19.4122 7.69231 19.2V14.4C7.69231 14.1878 7.60721 13.9843 7.45574 13.8343C7.30427 13.6843 7.09883 13.6 6.88462 13.6H5.80769C5.59348 13.6 5.38804 13.6843 5.23657 13.8343C5.0851 13.9843 5 14.1878 5 14.4V19.2C5 19.4122 5.0851 19.6157 5.23657 19.7657C5.38804 19.9157 5.59348 20 5.80769 20ZM13.3462 20H14.4231C14.6373 20 14.8427 19.9157 14.9942 19.7657C15.1457 19.6157 15.2308 19.4122 15.2308 19.2V11.2C15.2308 10.9878 15.1457 10.7843 14.9942 10.6343C14.8427 10.4843 14.6373 10.4 14.4231 10.4H13.3462C13.1319 10.4 12.9265 10.4843 12.775 10.6343C12.6236 10.7843 12.5385 10.9878 12.5385 11.2V19.2C12.5385 19.4122 12.6236 19.6157 12.775 19.7657C12.9265 19.9157 13.1319 20 13.3462 20ZM17.1154 20H18.1923C18.4065 20 18.612 19.9157 18.7634 19.7657C18.9149 19.6157 19 19.4122 19 19.2V7.46667C19 7.25449 18.9149 7.05101 18.7634 6.90098C18.612 6.75095 18.4065 6.66667 18.1923 6.66667H17.1154C16.9012 6.66667 16.6957 6.75095 16.5443 6.90098C16.3928 7.05101 16.3077 7.25449 16.3077 7.46667V19.2C16.3077 19.4122 16.3928 19.6157 16.5443 19.7657C16.6957 19.9157 16.9012 20 17.1154 20ZM9.57692 20H10.6538C10.8681 20 11.0735 19.9157 11.225 19.7657C11.3764 19.6157 11.4615 19.4122 11.4615 19.2V4.8C11.4615 4.58783 11.3764 4.38434 11.225 4.23431C11.0735 4.08429 10.8681 4 10.6538 4H9.57692C9.36271 4 9.15727 4.08429 9.0058 4.23431C8.85433 4.38434 8.76923 4.58783 8.76923 4.8V19.2C8.76923 19.4122 8.85433 19.6157 9.0058 19.7657C9.15727 19.9157 9.36271 20 9.57692 20Z" fill="#6CBDE2"/>
<path d="M27.625 7.30966V4.45455H39.919V7.30966H35.5085V19H32.0426V7.30966H27.625ZM42.636 19V4.45455H48.6445C49.7335 4.45455 50.6734 4.65104 51.4641 5.04403C52.2596 5.43229 52.8728 5.991 53.3036 6.72017C53.7345 7.4446 53.9499 8.30398 53.9499 9.2983C53.9499 10.3068 53.7298 11.1638 53.2894 11.8693C52.8491 12.5701 52.2241 13.1051 51.4144 13.4744C50.6048 13.839 49.646 14.0213 48.538 14.0213H44.7383V11.2514H47.8846C48.4149 11.2514 48.8576 11.1828 49.2127 11.0455C49.5726 10.9034 49.8448 10.6903 50.0295 10.4062C50.2141 10.1174 50.3065 9.74811 50.3065 9.2983C50.3065 8.84848 50.2141 8.4768 50.0295 8.18324C49.8448 7.88494 49.5726 7.66241 49.2127 7.51562C48.8529 7.36411 48.4102 7.28835 47.8846 7.28835H46.1516V19H42.636ZM50.8249 12.3523L54.4471 19H50.6119L47.0607 12.3523H50.8249ZM60.0245 19H56.2461L61.1538 4.45455H65.8342L70.7418 19H66.9634L63.5472 8.11932H63.4336L60.0245 19ZM59.5202 13.2756H67.418V15.946H59.5202V13.2756ZM78.6843 19H73.3079V4.45455H78.6772C80.1592 4.45455 81.4353 4.74574 82.5053 5.32812C83.5801 5.90578 84.4087 6.73911 84.9911 7.82812C85.5735 8.91241 85.8647 10.2098 85.8647 11.7202C85.8647 13.2353 85.5735 14.5374 84.9911 15.6264C84.4135 16.7154 83.5872 17.5511 82.5124 18.1335C81.4376 18.7112 80.1616 19 78.6843 19ZM76.8235 16.0028H78.5494C79.3638 16.0028 80.0527 15.8655 80.6161 15.5909C81.1843 15.3116 81.6128 14.8594 81.9016 14.2344C82.1952 13.6046 82.342 12.7666 82.342 11.7202C82.342 10.6738 82.1952 9.84044 81.9016 9.22017C81.6081 8.59517 81.1748 8.14536 80.6019 7.87074C80.0337 7.59138 79.333 7.4517 78.4996 7.4517H76.8235V16.0028ZM92.4329 4.45455V19H88.9173V4.45455H92.4329ZM108.019 4.45455V19H105.036L99.2479 10.6051H99.1555V19H95.6399V4.45455H98.6655L104.39 12.8352H104.511V4.45455H108.019ZM124.958 11.7273C124.958 13.3277 124.651 14.6842 124.035 15.7969C123.42 16.9096 122.586 17.7547 121.535 18.3324C120.489 18.91 119.315 19.1989 118.012 19.1989C116.706 19.1989 115.529 18.9077 114.483 18.3253C113.436 17.7429 112.605 16.8977 111.99 15.7898C111.379 14.6771 111.074 13.3229 111.074 11.7273C111.074 10.1269 111.379 8.77036 111.99 7.65767C112.605 6.54498 113.436 5.69981 114.483 5.12216C115.529 4.54451 116.706 4.25568 118.012 4.25568C119.315 4.25568 120.489 4.54451 121.535 5.12216C122.586 5.69981 123.42 6.54498 124.035 7.65767C124.651 8.77036 124.958 10.1269 124.958 11.7273ZM121.365 11.7273C121.365 10.7803 121.23 9.98011 120.96 9.3267C120.695 8.67329 120.311 8.1785 119.809 7.84233C119.312 7.50615 118.713 7.33807 118.012 7.33807C117.316 7.33807 116.717 7.50615 116.216 7.84233C115.714 8.1785 115.328 8.67329 115.058 9.3267C114.793 9.98011 114.66 10.7803 114.66 11.7273C114.66 12.6742 114.793 13.4744 115.058 14.1278C115.328 14.7812 115.714 15.276 116.216 15.6122C116.717 15.9484 117.316 16.1165 118.012 16.1165C118.713 16.1165 119.312 15.9484 119.809 15.6122C120.311 15.276 120.695 14.7812 120.96 14.1278C121.23 13.4744 121.365 12.6742 121.365 11.7273Z" fill="black"/>
</svg>
