<svg width="127" height="24" viewBox="0 0 127 24" fill="none" xmlns="http://www.w3.org/2000/svg">
<path fill-rule="evenodd" clip-rule="evenodd" d="M4 0C1.79086 0 0 1.79086 0 4V20C0 22.2091 1.79086 24 4 24H20C22.2091 24 24 22.2091 24 20V4C24 1.79086 22.2091 0 20 0H4ZM5.80769 20H6.88462C7.09883 20 7.30427 19.9157 7.45574 19.7657C7.60721 19.6157 7.69231 19.4122 7.69231 19.2V14.4C7.69231 14.1878 7.60721 13.9843 7.45574 13.8343C7.30427 13.6843 7.09883 13.6 6.88462 13.6H5.80769C5.59348 13.6 5.38804 13.6843 5.23657 13.8343C5.0851 13.9843 5 14.1878 5 14.4V19.2C5 19.4122 5.0851 19.6157 5.23657 19.7657C5.38804 19.9157 5.59348 20 5.80769 20ZM13.3462 20H14.4231C14.6373 20 14.8427 19.9157 14.9942 19.7657C15.1457 19.6157 15.2308 19.4122 15.2308 19.2V11.2C15.2308 10.9878 15.1457 10.7843 14.9942 10.6343C14.8427 10.4843 14.6373 10.4 14.4231 10.4H13.3462C13.1319 10.4 12.9265 10.4843 12.775 10.6343C12.6236 10.7843 12.5385 10.9878 12.5385 11.2V19.2C12.5385 19.4122 12.6236 19.6157 12.775 19.7657C12.9265 19.9157 13.1319 20 13.3462 20ZM17.1154 20H18.1923C18.4065 20 18.612 19.9157 18.7634 19.7657C18.9149 19.6157 19 19.4122 19 19.2V7.46667C19 7.25449 18.9149 7.05101 18.7634 6.90098C18.612 6.75095 18.4065 6.66667 18.1923 6.66667H17.1154C16.9012 6.66667 16.6957 6.75095 16.5443 6.90098C16.3928 7.05101 16.3077 7.25449 16.3077 7.46667V19.2C16.3077 19.4122 16.3928 19.6157 16.5443 19.7657C16.6957 19.9157 16.9012 20 17.1154 20ZM9.57692 20H10.6538C10.8681 20 11.0735 19.9157 11.225 19.7657C11.3764 19.6157 11.4615 19.4122 11.4615 19.2V4.8C11.4615 4.58783 11.3764 4.38434 11.225 4.23431C11.0735 4.08429 10.8681 4 10.6538 4H9.57692C9.36271 4 9.15727 4.08429 9.0058 4.23431C8.85433 4.38434 8.76923 4.58783 8.76923 4.8V19.2C8.76923 19.4122 8.85433 19.6157 9.0058 19.7657C9.15727 19.9157 9.36271 20 9.57692 20Z" fill="white"/>
<path d="M28.625 7.30966V4.45455H40.919V7.30966H36.5085V19H33.0426V7.30966H28.625ZM43.636 19V4.45455H49.6445C50.7335 4.45455 51.6734 4.65104 52.4641 5.04403C53.2596 5.43229 53.8728 5.991 54.3036 6.72017C54.7345 7.4446 54.9499 8.30398 54.9499 9.2983C54.9499 10.3068 54.7298 11.1638 54.2894 11.8693C53.8491 12.5701 53.2241 13.1051 52.4144 13.4744C51.6048 13.839 50.646 14.0213 49.538 14.0213H45.7383V11.2514H48.8846C49.4149 11.2514 49.8576 11.1828 50.2127 11.0455C50.5726 10.9034 50.8448 10.6903 51.0295 10.4062C51.2141 10.1174 51.3065 9.74811 51.3065 9.2983C51.3065 8.84848 51.2141 8.4768 51.0295 8.18324C50.8448 7.88494 50.5726 7.66241 50.2127 7.51562C49.8529 7.36411 49.4102 7.28835 48.8846 7.28835H47.1516V19H43.636ZM51.8249 12.3523L55.4471 19H51.6119L48.0607 12.3523H51.8249ZM61.0245 19H57.2461L62.1538 4.45455H66.8342L71.7418 19H67.9634L64.5472 8.11932H64.4336L61.0245 19ZM60.5202 13.2756H68.418V15.946H60.5202V13.2756ZM79.6843 19H74.3079V4.45455H79.6772C81.1592 4.45455 82.4353 4.74574 83.5053 5.32812C84.5801 5.90578 85.4087 6.73911 85.9911 7.82812C86.5735 8.91241 86.8647 10.2098 86.8647 11.7202C86.8647 13.2353 86.5735 14.5374 85.9911 15.6264C85.4135 16.7154 84.5872 17.5511 83.5124 18.1335C82.4376 18.7112 81.1616 19 79.6843 19ZM77.8235 16.0028H79.5494C80.3638 16.0028 81.0527 15.8655 81.6161 15.5909C82.1843 15.3116 82.6128 14.8594 82.9016 14.2344C83.1952 13.6046 83.342 12.7666 83.342 11.7202C83.342 10.6738 83.1952 9.84044 82.9016 9.22017C82.6081 8.59517 82.1748 8.14536 81.6019 7.87074C81.0337 7.59138 80.333 7.4517 79.4996 7.4517H77.8235V16.0028ZM93.4329 4.45455V19H89.9173V4.45455H93.4329ZM109.019 4.45455V19H106.036L100.248 10.6051H100.156V19H96.6399V4.45455H99.6655L105.39 12.8352H105.511V4.45455H109.019ZM125.958 11.7273C125.958 13.3277 125.651 14.6842 125.035 15.7969C124.42 16.9096 123.586 17.7547 122.535 18.3324C121.489 18.91 120.315 19.1989 119.012 19.1989C117.706 19.1989 116.529 18.9077 115.483 18.3253C114.436 17.7429 113.605 16.8977 112.99 15.7898C112.379 14.6771 112.074 13.3229 112.074 11.7273C112.074 10.1269 112.379 8.77036 112.99 7.65767C113.605 6.54498 114.436 5.69981 115.483 5.12216C116.529 4.54451 117.706 4.25568 119.012 4.25568C120.315 4.25568 121.489 4.54451 122.535 5.12216C123.586 5.69981 124.42 6.54498 125.035 7.65767C125.651 8.77036 125.958 10.1269 125.958 11.7273ZM122.365 11.7273C122.365 10.7803 122.23 9.98011 121.96 9.3267C121.695 8.67329 121.311 8.1785 120.809 7.84233C120.312 7.50615 119.713 7.33807 119.012 7.33807C118.316 7.33807 117.717 7.50615 117.216 7.84233C116.714 8.1785 116.328 8.67329 116.058 9.3267C115.793 9.98011 115.66 10.7803 115.66 11.7273C115.66 12.6742 115.793 13.4744 116.058 14.1278C116.328 14.7812 116.714 15.276 117.216 15.6122C117.717 15.9484 118.316 16.1165 119.012 16.1165C119.713 16.1165 120.312 15.9484 120.809 15.6122C121.311 15.276 121.695 14.7812 121.96 14.1278C122.23 13.4744 122.365 12.6742 122.365 11.7273Z" fill="white"/>
</svg>
